SplineFontDB: 3.0
FontName: TrashimCLM-Bold
FullName: Trashim CLM Bold
FamilyName: Trashim CLM
Weight: Bold
Copyright: Copyright 2013 by Maxim Iorsh (iorsh@users.sourceforge.net). Distributed under the terms of GNU General Public License version 2(http://www.gnu.org/licenses/gpl-2.0.html). All rights reserved.
UComments: "2008-4-4: Created." 
Version: 1.0
ItalicAngle: 0
UnderlinePosition: -100
UnderlineWidth: 50
Ascent: 800
Descent: 400
LayerCount: 2
Layer: 0 0 "Back"  1
Layer: 1 0 "Fore"  0
XUID: [1021 50 1840131271 4387328]
FSType: 0
OS2Version: 0
OS2_WeightWidthSlopeOnly: 0
OS2_UseTypoMetrics: 1
CreationTime: 1207340925
ModificationTime: 1358670396
PfmFamily: 81
TTFWeight: 700
TTFWidth: 5
LineGap: 90
VLineGap: 0
OS2TypoAscent: 0
OS2TypoAOffset: 1
OS2TypoDescent: 0
OS2TypoDOffset: 1
OS2TypoLinegap: 90
OS2WinAscent: 800
OS2WinAOffset: 0
OS2WinDescent: 400
OS2WinDOffset: 0
HheadAscent: 0
HheadAOffset: 1
HheadDescent: 0
HheadDOffset: 1
OS2Vendor: 'CLM '
MarkAttachClasses: 1
DEI: 91125
ShortTable: maxp 16
  0
  0
  0
  0
  0
  0
  0
  2
  1
  0
  20
  0
  256
  0
  0
  0
EndShort
TtTable: prep
PUSHW_1
 511
SCANCTRL
PUSHB_1
 1
SCANTYPE
SVTCA[y-axis]
MPPEM
PUSHB_1
 8
LT
IF
PUSHB_2
 1
 1
INSTCTRL
EIF
PUSHB_2
 70
 6
CALL
IF
POP
PUSHB_1
 16
EIF
MPPEM
PUSHB_1
 20
GT
IF
POP
PUSHB_1
 128
EIF
SCVTCI
PUSHB_1
 6
CALL
NOT
IF
EIF
EndTTInstrs
TtTable: fpgm
PUSHB_1
 0
FDEF
PUSHB_1
 0
SZP0
MPPEM
PUSHB_1
 42
LT
IF
PUSHB_1
 74
SROUND
EIF
PUSHB_1
 0
SWAP
MIAP[rnd]
RTG
PUSHB_1
 6
CALL
IF
RTDG
EIF
MPPEM
PUSHB_1
 42
LT
IF
RDTG
EIF
DUP
MDRP[rp0,rnd,grey]
PUSHB_1
 1
SZP0
MDAP[no-rnd]
RTG
ENDF
PUSHB_1
 1
FDEF
DUP
MDRP[rp0,min,white]
PUSHB_1
 12
CALL
ENDF
PUSHB_1
 2
FDEF
MPPEM
GT
IF
RCVT
SWAP
EIF
POP
ENDF
PUSHB_1
 3
FDEF
ROUND[Black]
RTG
DUP
PUSHB_1
 64
LT
IF
POP
PUSHB_1
 64
EIF
ENDF
PUSHB_1
 4
FDEF
PUSHB_1
 6
CALL
IF
POP
SWAP
POP
ROFF
IF
MDRP[rp0,min,rnd,black]
ELSE
MDRP[min,rnd,black]
EIF
ELSE
MPPEM
GT
IF
IF
MIRP[rp0,min,rnd,black]
ELSE
MIRP[min,rnd,black]
EIF
ELSE
SWAP
POP
PUSHB_1
 5
CALL

StartChar: afii57664
Encoding: 1488 1488 0
Width: 791
VWidth: 1000
Flags: MW
LayerCount: 2
Back
SplineSet
151.662 660 m 17
 104.662 610 72.6621 560 62.6621 506 c 9
 211.662 354 l 25
 69.6621 131 l 18
 29.002 67.1465 53.04 -8.33105 126.662 -25 c 10
 232.662 -49 l 17
 265.662 -8 285.514 43.6641 293.662 97 c 9
 254 109 l 18
 222.189 118.625 211.102 140.592 224 169 c 10
 281.662 296 l 25
 602.662 -53 l 17
 649.85 -22.1533 681.662 16 706.662 57 c 9
 547.662 207 l 29
 691.662 465 l 18
 738.081 548.166 697.854 613.783 616.662 627 c 10
 530.662 641 l 17
 477.582 604.6 446.318 554.699 427.662 497 c 9
 486.662 488 l 18
 535.512 479.379 535.005 426.175 527.662 411 c 10
 467.662 287 l 29
 151.662 660 l 17
EndSplineSet
Fore
SplineSet
171.662 660 m 9
 508 263.4 l 25
 548.5 410 l 18
 559.438 448.956 546.224 481.965 506.662 488 c 10
 447.662 497 l 17
 466.318 554.699 497.582 604.6 550.662 641 c 9
 636.662 627 l 18
 717.854 613.783 752.967 553.191 717 465 c 10
 596 181.4 l 25
 726.662 57 l 17
 701.662 16 669.85 -22.1533 622.662 -53 c 9
 280 319 l 25
 240.5 167.5 l 18
 233.219 137.162 242.189 118.625 274 109 c 10
 313.662 97 l 17
 305.514 43.6641 285.662 -8 252.662 -49 c 9
 146.662 -25 l 18
 73.04 -8.33105 52.2363 63.501 85.5 131.5 c 14
 210 377 l 25
 82.6621 506 l 17
 92.6621 560 124.662 610 171.662 660 c 9
EndSplineSet
EndChar

StartChar: afii57669
Encoding: 1493 1493 1
Width: 377
VWidth: 1000
Flags: MW
LayerCount: 2
Fore
SplineSet
76.7725 638.9 m 9
 222.545 605.801 l 18
 264.619 597.225 296.867 588.158 297.545 537.801 c 10
 303.772 6.90039 l 17
 259.923 -19.6729 206.607 -32.9619 146.772 -37.0996 c 9
 200.545 372.801 l 18
 204.389 402.104 198.196 426.078 168.545 428.801 c 10
 63.7725 440.9 l 17
 50.0732 505.415 49.9824 566.413 76.7725 638.9 c 9
EndSplineSet
EndChar

StartChar: afii57670
Encoding: 1494 1494 3
Width: 460
VWidth: 1000
Flags: HMW
LayerCount: 2
Fore
SplineSet
107.575 628.67 m 13
 196.575 619.67 l 22
 223.703 616.927 250.54 616.148 276.075 621.67 c 14
 368.575 641.67 l 21
 395.302 589.039 399.307 531.284 390.575 470.67 c 13
 304.575 450.67 l 22
 276.942 444.243 265.324 423.801 268.575 390.67 c 10
 308.575 -17 l 17
 247.815 -34.9258 188.672 -28.7295 130.575 -7 c 9
 170.575 389.17 l 18
 174.485 427.896 168.678 452.548 137.575 456.17 c 14
 64.5752 464.67 l 21
 64.4922 525.205 74.9922 581.429 107.575 628.67 c 13
EndSplineSet
EndChar

StartChar: afii57675
Encoding: 1499 1499 4
Width: 631
VWidth: 1005
Flags: MW
LayerCount: 2
Fore
SplineSet
115.135 645 m 9
 476.926 596.2 l 18
 528.122 589.295 557.646 550.857 571.135 506 c 0
 614.135 363 612.344 160 559.135 19.2002 c 0
 548.351 -9.33691 513.854 -16.8066 469.135 -19.7998 c 10
 61.1348 -38 l 17
 56.3438 19.7998 66.3438 76.7998 98.3438 124.8 c 9
 396.135 103 l 18
 420.553 102.35 439.347 123.729 451.135 148 c 0
 485.135 218 500.135 335 481.926 432.2 c 0
 477.055 458.201 456.27 466.802 435.926 466.2 c 10
 76.9258 455 l 17
 67.1348 514.8 91.3438 595.8 115.135 645 c 9
EndSplineSet
EndChar

StartChar: afii57684
Encoding: 1508 1508 5
Width: 641
VWidth: 1000
Flags: MW
LayerCount: 2
Fore
SplineSet
479.902 610 m 1
 537.648 605.07 579.193 562.199 581.902 486 c 2
 595.902 92 l 2
 599.434 12.0684 536.281 -15.5273 489.902 -19 c 2
 75.9014 -50 l 1
 71.4531 2.07422 85.5098 88.5713 114.999 138 c 1
 390 97 l 2
 426.729 91.6602 445.338 112.421 449 148 c 2
 475 414 l 2
 479.084 455.785 455.963 475.203 415 475 c 2
 213 474 l 2
 156.5 468.95 167.282 384.93 202.999 376 c 2
 367 335 l 1
 344 272 296 226 230.999 195 c 1
 140.999 248 l 2
 81.4922 283.043 75.7158 344.227 81.999 415 c 2
 95.1387 563 l 2
 99.7988 612.908 134.934 648.516 191.902 645.138 c 2
 479.902 610 l 1
EndSplineSet
EndChar

StartChar: afii57671
Encoding: 1495 1495 6
Width: 725
VWidth: 1000
Flags: HMW
LayerCount: 2
Fore
SplineSet
107.265 612 m 1
 491.265 642 l 2
 570.769 648.211 626.342 627.236 635.265 541 c 2
 690 12 l 1
 654.33 -23.0518 583.259 -37.3252 534.265 -38 c 1
 544 436 l 1
 545.673 458.922 530.024 476.369 493.735 477 c 2
 228.609 481.608 l 1
 255 16 l 1
 218.84 -16.6543 147.806 -28.7881 85 -27 c 1
 134.439 483.245 l 1
 91 484 l 1
 82 527 89 576 107.265 612 c 1
EndSplineSet
EndChar

StartChar: afii57687
Encoding: 1511 1511 7
Width: 671
VWidth: 1000
Flags: MW
LayerCount: 2
Fore
SplineSet
111 265 m 17
 139 295 182 321 227 333 c 9
 241.949 -208 l 17
 196.614 -236.665 147.283 -251.998 93.9492 -254 c 9
 111 265 l 17
91.9492 651 m 9
 458.949 628 l 18
 558.95 620.013 620.062 576.447 615.949 460 c 10
 602.949 92 l 18
 591.645 1.55859 553.986 -37.8174 484.949 -37 c 10
 315.949 -35 l 17
 285.722 6.36621 291.169 19.2451 285.949 74 c 9
 387.949 86 l 18
 415.449 95.4941 440.317 115.517 446.949 146 c 10
 508.949 431 l 18
 515.586 470.405 492.99 492.669 446.949 487 c 10
 110.949 452 l 17
 79.9551 511.476 81.0693 583.531 91.9492 651 c 9
EndSplineSet
EndChar

StartChar: afii57680
Encoding: 1504 1504 8
Width: 438
VWidth: 1000
Flags: MW
LayerCount: 2
Fore
SplineSet
144 647 m 9
 279 632 l 18
 347.707 624.366 371.318 607.009 373 544 c 2
 386.265 47 l 2
 387.34 6.71549 362.717 -19.6457 325 -22.1006 c 2
 50 -40 l 1
 51.7471 18.1572 63.9922 71.8398 84.5 122 c 9
 209.5 118 l 18
 236.331 117.142 250.497 129.056 253 154 c 10
 281 433 l 18
 284.239 465.277 269.007 483.585 231 483 c 10
 101 481 l 17
 103 540 117.388 591.666 144 647 c 9
EndSplineSet
EndChar

StartChar: afii57688
Encoding: 1512 1512 9
Width: 573
VWidth: 1000
Flags: MW
LayerCount: 2
Fore
SplineSet
39 621 m 9
 317 636 l 18
 434.424 642.336 493.151 575.182 497 483 c 10
 518 -20 l 17
 471 -39 414 -41 359 -31 c 9
 396 395 l 18
 398.23 426.523 387.538 456.946 347 461 c 10
 40 489 l 17
 29 534 31 581 39 621 c 9
EndSplineSet
EndChar

StartChar: afii57666
Encoding: 1490 1490 10
Width: 483
VWidth: 1015
Flags: HMW
LayerCount: 2
Fore
SplineSet
121.499 647.05 m 9
 234.271 629.4 l 18
 301.465 618.884 338.909 572.295 353.908 485.418 c 10
 439.333 -9.37305 l 17
 406.405 -35.3936 351.333 -54.373 299.589 -49.123 c 9
 297.338 129 l 25
 71.2178 -61.5166 l 17
 40.792 10.9668 47.9717 104.302 62.5322 163.336 c 9
 276.45 261.094 l 25
 263.449 395.601 l 18
 257.667 455.434 208.218 457.627 114.554 472.453 c 1
 110.137 511.039 98.1094 599.407 121.499 647.05 c 9
EndSplineSet
EndChar

StartChar: afii57678
Encoding: 1502 1502 11
Width: 758
VWidth: 1000
Flags: MW
LayerCount: 2
Back
SplineSet
91.7012 647 m 17xe0
 58.8516 586.952 44.8389 524.381 51.7012 459 c 9
 131.701 432 l 18
 155.767 423.878 167.456 410.547 162.701 385.5 c 10
 90.7012 -8.5 l 17
 139.701 -27 196.701 -31 243.701 -15 c 9
 268.701 409 l 18
 270.606 439.381 283.699 453.402 306.701 453 c 10
 449.701 450.5 l 18
 496.687 449.679 516.35 420.639 511.701 370.5 c 2
 490.701 144 l 2
 488.193 118.43 476.426 106.852 456.833 110.537 c 2
 350.701 130.5 l 1
 345.917 82.959 350.768 13.3799 374.889 -31.5 c 1
 555.889 -23.5635 l 2
 610.664 -21.1621 631.654 14.0996 628.701 66 c 2
 607.701 491.5 l 2
 603.657 573.44 557.399 609.494 474.701 604.5 c 10
 267.701 592 l 18
 233.478 589.934 202.33 591.019 174.701 605 c 10
 91.7012 647 l 17xe0
EndSplineSet
Fore
SplineSet
126.701 647 m 9
 209.701 605 l 18
 237.33 591.019 268.464 590.194 302.701 592 c 10
 539.701 604.5 l 22
 622.399 609.494 668.657 573.44 672.701 491.5 c 6
 693.701 66 l 6
 696.654 14.0996 675.664 -21.1621 620.889 -23.5635 c 6
 409.889 -31.5 l 1
 385.768 13.3799 380.917 82.959 385.701 130.5 c 1
 521.833 110.537 l 6
 541.426 106.852 553.193 118.43 555.701 144 c 6
 576.701 370.5 l 6
 581.35 420.639 561.688 449.679 514.701 450.5 c 14
 341.701 453 l 18
 318.698 453.332 305.606 439.381 303.701 409 c 10
 278.701 -15 l 17
 231.701 -31 174.701 -27 125.701 -8.5 c 9
 197.701 385.5 l 18
 202.456 410.547 190.767 423.878 166.701 432 c 10
 86.7012 459 l 17
 79.8389 524.381 93.8516 586.952 126.701 647 c 9
EndSplineSet
EndChar

StartChar: afii57682
Encoding: 1506 1506 12
Width: 667
VWidth: 1000
Flags: MW
LayerCount: 2
Back
SplineSet
50 608 m 17
 91.8633 624.527 187.827 634.328 235.017 626 c 9
 297.017 191 l 18
 303.203 147.597 306.274 103.946 337.017 94 c 0
 371.017 83 422.799 127.023 431 202 c 10
 479.017 641 l 17
 529.429 640.763 602.249 626.93 642 602 c 9
 517 114 l 18
 498.485 41.7197 424.831 -28.1523 352.017 -52 c 10
 93.0166 -135 l 17
 63.9229 -84.1465 50.4619 -24.8545 51.0166 42 c 9
 198.017 52 l 18
 221.115 53.7998 228.631 71.5576 218.017 101 c 10
 50 608 l 17
EndSplineSet
Fore
SplineSet
40 608 m 17
 97 630 161 640 225.017 626 c 9
 287.017 191 l 18
 293.203 147.597 296.274 103.946 327.017 94 c 0
 361.017 83 415.054 126.812 421 202 c 10
 452 594 l 17
 505 619 580 630 636 617 c 9
 507 114 l 18
 488.464 41.7246 414.831 -28.1523 342.017 -52 c 10
 83.0166 -135 l 17
 53.9229 -84.1465 40.4619 -24.8545 41.0166 42 c 9
 188.017 52 l 18
 211.115 53.7998 218.631 71.5576 208.017 101 c 10
 40 608 l 17
EndSplineSet
EndChar

StartChar: afii57683
Encoding: 1507 1507 13
Width: 605
VWidth: 1005
Flags: MW
LayerCount: 2
Fore
SplineSet
290.391 322 m 17
 308.704 265.997 306.107 225.003 292.391 169 c 9
 122.391 194 l 18
 75.3779 200.914 51.6094 225.282 55.3906 276 c 10
 70.3906 542 l 18
 73.1543 591.01 100.434 617.043 144.391 619 c 10
 436.391 632 l 18
 500.486 634.854 534.379 611.284 537.391 540 c 10
 570.391 -240.952 l 21
 514.461 -244.908 461.391 -237.952 411.391 -210.952 c 13
 444.391 393 l 18
 447.675 453.107 421.223 487.112 366.391 493 c 10
 217.391 509 l 18
 183.021 515.586 169.661 492.825 171.391 464 c 10
 177.391 364 l 18
 179.392 340.494 195.126 332.815 217.391 330 c 10
 290.391 322 l 17
EndSplineSet
EndChar

StartChar: afii57681
Encoding: 1505 1505 14
Width: 716
VWidth: 1000
Flags: MW
LayerCount: 2
Back
SplineSet
290.5 476.5 m 22
 269.237 473.717 259.865 460.491 261.5 435 c 6
 279.912 148 l 6
 282.488 107.839 303.431 93.993 349 104 c 6
 474 131.45 l 6
 495.722 136.22 508.718 149.422 511 168 c 14
 546 453 l 22
 550.701 491.282 528.076 507.59 493 503 c 14
 290.5 476.5 l 22
83 636 m 13
 159 622 l 22
 184.528 617.297 210 613 239 613 c 14
 593.635 613 l 22
 667.635 613 712.956 563.904 691.635 480.958 c 14
 586 70 l 22
 563.067 -19.2158 527.601 -31.2588 476 -30 c 6
 282 -26 l 6
 228.797 -24.9033 193.366 10.7461 187 58 c 6
 142 392 l 6
 138.71 416.419 138.963 450.771 112 455 c 14
 61 463 l 21
 47.8124 521.773 55 578 83 636 c 13
EndSplineSet
Fore
SplineSet
285.5 476.5 m 18
 264.237 473.717 254.883 460.49 256.5 435 c 2
 272.868 177 l 2
 276.732 116.759 308.24 95.5742 376.5 111 c 2
 452.5 128.175 l 2
 486.592 135.879 504.818 159.022 509 193 c 10
 541 453 l 18
 545.712 491.284 523.076 507.59 488 503 c 10
 285.5 476.5 l 18
78 636 m 9
 154 622 l 18
 179.528 617.297 205 613 234 613 c 10
 588.635 613 l 18
 662.635 613 707.95 563.9 686.635 480.958 c 10
 594 120.5 l 18
 566.867 14.9199 524.052 -32.0928 429 -29.5 c 2
 319 -26.5 l 2
 239.206 -24.3242 186.049 28.6191 176.5 99.5 c 2
 137 392 l 2
 133.702 416.421 133.963 450.771 107 455 c 10
 56 463 l 17
 42.8125 521.773 50 578 78 636 c 9
EndSplineSet
EndChar

StartChar: afii57689
Encoding: 1513 1513 15
Width: 862
VWidth: 1000
Flags: MW
LayerCount: 2
Back
SplineSet
50 611 m 1
 96.3369 633.12 164 646 237 635 c 1
 279.911 193 l 2
 289.264 96.6689 384.803 96.3174 379.984 200 c 2
 360 630 l 1
 419 646 484 647 540 629 c 1
 494.911 192 l 2
 482.776 84.4932 588.587 77.7949 603.632 177 c 2
 674 641 l 1
 736 639 803.825 616.62 832 570 c 1
 681 86 l 2
 661.671 24.0449 628.007 -4.12207 559.911 -9.92383 c 2
 290.911 -32.8428 l 2
 230.738 -37.9697 204.471 -11.2959 188.263 54 c 2
 50 611 l 1
EndSplineSet
Fore
SplineSet
593.632 177 m 2
 664 641 l 1
 726 639 793.825 616.62 822 570 c 1
 671 86 l 2
 651.671 24.0449 618.007 -4.12207 549.911 -9.92383 c 2
 280.911 -32.8428 l 2
 220.738 -37.9697 194.471 -11.2959 178.263 54 c 2
 40 611 l 1
 86.3369 633.12 154 646 227 635 c 1
 260.927 379.396 l 2
 270.28 283.064 365.819 282.713 361 386.396 c 2
 350 630 l 1
 409 646 474 647 530 629 c 1
 505 366.396 l 2
 493.228 242.732 398.535 236.255 321 225 c 0
 290 220.5 272.552 201.442 273.5 173 c 0
 274.5 143 292.416 124.506 317.4 122.4 c 10
 531 104.395 l 18
 533.357 104.196 582.367 102.723 593.632 177 c 2
EndSplineSet
EndChar

StartChar: afii57672
Encoding: 1496 1496 16
Width: 744
VWidth: 1000
Flags: MW
LayerCount: 2
Fore
SplineSet
215 644 m 9
 262 125 l 18
 263.841 104.713 278.54 95.5352 301 99 c 10
 476 126 l 18
 497.5 129 510.885 144.835 511.5 171 c 10
 517.5 426 l 18
 518.053 449.482 494.377 459 473.5 459 c 10
 322 459 l 17
 311.677 506 306.878 549 322.5 600 c 9
 558 639 l 18
 642.369 652.972 709.97 605.363 692 512 c 10
 600 34 l 18
 590.363 -16.0703 557.521 -30.2627 514 -32 c 10
 259 -39 l 18
 205.195 -40.4766 178.195 -11.4785 167 40 c 10
 50 578 l 17
 92.083 615.501 148.949 635.262 215 644 c 9
EndSplineSet
EndChar

StartChar: afii57686
Encoding: 1510 1510 17
Width: 706
VWidth: 1005
Flags: MW
LayerCount: 2
Back
SplineSet
50 571 m 1
 89.2043 603.999 177.471 631.945 222 636 c 9
 374 333 l 25
 501 635 l 17
 565 629 626 605 666 561 c 9
 457 267 l 25
 565 187 l 18
 655.194 120.189 602.746 -15.2549 518 -21 c 10
 64 -37 l 17
 52 24 57 90 83 150 c 9
 418 104 l 18
 442.173 100.681 452.348 130.729 435 142 c 2
 306 217.151 l 2
 241.716 254.602 199.957 299.821 163.914 365 c 2
 50 571 l 1
EndSplineSet
Fore
SplineSet
75 576 m 1
 114.204 608.999 202.471 636.945 247 641 c 9
 384 326.5 l 29
 526 640 l 17
 590 634 651 610 691 566 c 9
 482 272 l 25
 590 192 l 18
 680.194 125.189 627.746 -10.2549 543 -16 c 10
 89 -32 l 17
 77 29 82 95 108 155 c 9
 443 109 l 18
 467.173 105.681 477.979 136.768 460 147 c 2
 366 200.5 l 2
 311.677 231.418 267.291 282.036 223.914 348.349 c 2
 75 576 l 1
EndSplineSet
EndChar

StartChar: afii57667
Encoding: 1491 1491 18
Width: 717
VWidth: 1000
Flags: MW
LayerCount: 2
Back
SplineSet
91.0596 633 m 1xc0
 59.9316 574.894 49.082 513.431 50.0596 450 c 9
 528.686 480 l 17
 496.686 454 484.18 391.958 478.06 341 c 2
 432.06 -42 l 17
 510.412 -45.0684 558.658 -32.8076 621.061 12 c 9
 605.061 344 l 18
 601.594 415.93 626.061 458 727.061 459 c 1
 744.52 524.128 744.562 564.542 726.061 635 c 1
 631.061 610.889 l 2
 566.896 594.604 503.12 587.843 426.06 596.288 c 2
 91.0596 633 l 1xc0
EndSplineSet
Fore
SplineSet
91.0596 633 m 1
 353.096 596.288 l 2
 429.868 585.532 493.932 594.604 558.097 610.889 c 2
 653.097 635 l 1
 671.598 564.542 671.556 524.128 654.097 459 c 1
 553.097 458 542.075 415.93 545.542 344 c 14
 561.542 12 l 21
 499.139 -32.8076 450.893 -45.0684 372.541 -42 c 13
 427.505 388.277 l 6
 434.705 444.636 404.471 475.455 361.505 472.277 c 6
 50.0596 450 l 1
 49.082 513.432 59.9307 574.895 91.0596 633 c 1
EndSplineSet
EndChar

StartChar: afii57668
Encoding: 1492 1492 19
Width: 720
VWidth: 1010
Flags: MW
LayerCount: 2
Fore
SplineSet
103 248 m 17
 142 256.752 181 257.562 220 249 c 9
 247 -10 l 17
 183.793 -38.8545 116.205 -39.9053 45 -18 c 9
 103 248 l 17
71 610 m 9
 440 628 l 18
 549.127 633.323 648.848 618.032 655 471 c 10
 675 -7 l 17
 623.761 -28.7637 555.232 -34.8447 496 -21 c 9
 530 421 l 18
 534.866 484.262 505.571 510.891 439 497 c 10
 60 414 l 17
 42.7246 483.715 50.1387 548.269 71 610 c 9
EndSplineSet
EndChar

StartChar: afii57679
Encoding: 1503 1503 20
Width: 394
VWidth: 1015
Flags: MW
LayerCount: 2
Fore
SplineSet
94.0479 627 m 9
 205.048 630 l 18
 294.639 632.422 320.926 578.154 322.048 511 c 10
 334.044 -207 l 17
 281.8 -232.968 236.044 -243 178.044 -236 c 9
 228.044 410 l 18
 229.351 437.4 221.842 445.622 201.044 444 c 10
 56.0439 433 l 17
 51.0439 498 64.0439 566 94.0479 627 c 9
EndSplineSet
EndChar

StartChar: afii57674
Encoding: 1498 1498 21
Width: 605
VWidth: 1020
Flags: MW
LayerCount: 2
Back
SplineSet
70.6162 620.607 m 9
 352.116 600 l 18
 461.08 592.023 563.512 590.115 567.116 443 c 10
 585.616 -312 l 17
 534.377 -333.764 465.849 -339.845 406.616 -326 c 9
 459.616 393 l 18
 462.745 456.37 435.845 479.238 368.616 469 c 10
 59.6162 424.607 l 17
 42.3408 494.323 49.7549 558.877 70.6162 620.607 c 9
EndSplineSet
Fore
SplineSet
60.6162 640.607 m 9
 342.116 620 l 18
 451.08 612.023 555.04 610.145 557.116 463 c 10
 567.809 -294.805 l 17
 516.569 -316.568 469.041 -318.649 409.809 -304.805 c 9
 449.616 413 l 18
 453.129 476.351 425.845 499.238 358.616 489 c 10
 49.6162 444.607 l 17
 32.3408 514.323 39.7549 578.877 60.6162 640.607 c 9
EndSplineSet
EndChar

StartChar: afii57673
Encoding: 1497 1497 22
Width: 369
VWidth: 1000
Flags: MW
LayerCount: 2
Fore
SplineSet
61.3887 614 m 13
 226.389 631 l 22
 269.627 635.455 318.211 611.319 318.389 561 c 14
 319.389 278 l 21
 267.874 255.577 213.234 249.188 156.389 254 c 13
 172.389 437 l 22
 174.901 465.738 154.286 472.787 134.389 480 c 14
 54.3887 509 l 21
 46.9873 544 48.7061 579 61.3887 614 c 13
EndSplineSet
EndChar

StartChar: afii57676
Encoding: 1500 1500 23
Width: 594
VWidth: 1000
Flags: MW
LayerCount: 2
Fore
SplineSet
60.5312 816.542 m 21
 120.698 845.211 178.771 845.941 247.522 838.247 c 13
 154.103 624.736 l 29
 443.468 628.425 l 22
 530.155 629.53 593.337 590.866 550.339 495.145 c 14
 313.546 -32 l 21
 258.105 -30.6396 169.895 -14.752 134.64 25.0391 c 13
 425.986 462.982 l 22
 441.963 486.997 418.59 506.29 396.573 504.164 c 14
 50 470.689 l 29
 60.5312 816.542 l 21
EndSplineSet
EndChar

StartChar: afii57685
Encoding: 1509 1509 24
Width: 621
VWidth: 1000
Flags: MW
LayerCount: 2
Fore
SplineSet
20 592 m 21
 79.1523 616.675 142.193 625.39 204 622 c 5
 312.013 329 l 2
 320.751 305.296 336.616 299.616 355 311.072 c 2
 395 336 l 2
 418.028 350.351 427.924 377.171 427 413 c 10
 422 607 l 21
 468.273 631.448 520.399 642.064 580 635 c 13
 565 397 l 18
 560.042 318.334 534.318 264.842 478 244 c 2
 390 211.433 l 2
 365.34 202.307 352.017 186.802 354.592 161 c 2
 394 -234 l 1
 328.453 -237.046 273.594 -219.177 224 -191 c 9
 227 106 l 18
 227.647 170.014 220.65 221.136 198 263 c 10
 20 592 l 21
EndSplineSet
EndChar

StartChar: afii57677
Encoding: 1501 1501 25
Width: 772
VWidth: 1000
Flags: MW
LayerCount: 2
Back
SplineSet
146 626 m 1
 96 580 61 526 50 464 c 1
 541 498 l 2
 573.399 500.243 591.815 481.817 588 444 c 2
 555.417 121 l 2
 552.796 95.0206 532.928 80.4044 508 83.4146 c 2
 263 113 l 2
 229.646 117.027 225.391 136.089 229 162 c 1
 317 477 l 1
 141 429 l 1
 88 68 l 2
 76.9492 -7.26953 123.947 -43.0684 226 -31 c 2
 641 18.0768 l 2
 686.303 23.4342 708.852 53.0362 710.207 96 c 2
 722 470 l 2
 724.716 556.131 697.43 614.721 586 617 c 2
 146 626 l 1
EndSplineSet
Fore
SplineSet
146 626 m 1
 586 617 l 2
 697.43 614.721 724.716 556.131 722 470 c 2
 710.207 96 l 2
 708.852 53.0362 686.303 23.4342 641 18.0768 c 2
 226 -31 l 2
 123.947 -43.0684 78.1696 5.90393 104.09 104.351 c 2
 200.989 472.38 l 1
 50 464 l 1
 61 526 96 580 146 626 c 1
316.09 480.351 m 1
 256.09 157.351 l 2
 249.188 132.118 256.736 112.377 290.09 108.351 c 2
 508 83.4146 l 2
 532.95 80.5596 552.796 95.0206 555.417 121 c 2
 588 444 l 2
 591.815 481.817 573.375 500.541 541 498 c 2
 316.09 480.351 l 1
EndSplineSet
EndChar

StartChar: afii57690
Encoding: 1514 1514 26
Width: 763
VWidth: 1000
Flags: MW
LayerCount: 2
Fore
SplineSet
112.706 642 m 9
 561.706 616.333 l 18
 641.643 611.764 674.323 568.503 679.706 491.333 c 10
 713 14 l 17
 670.896 -25.541 614.371 -39.7754 551 -42 c 9
 581.706 425 l 18
 584.236 463.477 571.322 498.798 536.706 497 c 10
 305.706 485 l 25
 335.706 103 l 18
 340.38 43.4912 318.593 -12.0137 258.706 -19 c 10
 78.7061 -40 l 17
 71.3848 17.4932 75.1826 70.5049 87.7061 120 c 9
 150 108 l 18
 188.005 103.043 200.868 132.061 201 172 c 10
 208.706 477 l 17
 101.706 468 l 1
 90.6406 520.304 94.3555 592.362 112.706 642 c 9
EndSplineSet
EndChar

StartChar: zero
Encoding: 48 48 27
Width: 640
VWidth: 1000
Flags: MW
LayerCount: 2
Fore
SplineSet
201.335 488.784 m 10
 169.435 193 l 18
 163.686 139.697 197.728 107.104 253.035 100 c 2
 354.235 87 l 2
 406.025 80.583 433.571 112.686 442.235 161 c 10
 489.535 424.784 l 18
 497.572 469.608 483.028 498.762 446.635 507.784 c 2
 289.335 546.784 l 2
 239.816 559.062 206.628 537.863 201.335 488.784 c 10
60.2324 502.429 m 18
 55.1094 622.336 135.131 668.386 263.732 660.429 c 10
 473.832 647.429 l 18
 560.374 634.562 602.85 581.86 600.332 501.429 c 10
 589.332 150 l 18
 585.474 26.6973 500.232 -37 364.932 -37 c 10
 203.232 -50 l 18
 133.516 -55.6045 82.5068 -18.9307 80.0322 39 c 10
 60.2324 502.429 l 18
EndSplineSet
EndChar

StartChar: one
Encoding: 49 49 28
Width: 405
VWidth: 1000
Flags: HMW
LayerCount: 2
Back
SplineSet
61.3887 614 m 17
 48.7061 579 46.9873 544 54.3887 509 c 9
 134.389 480 l 18
 154.286 472.787 174.901 465.738 172.389 437 c 10
 156.389 254 l 21
 213.234 249.188 267.874 255.577 319.389 278 c 13
 318.389 561 l 18
 318.211 611.319 269.627 635.455 226.389 631 c 10
 61.3887 614 l 17
EndSplineSet
Fore
SplineSet
54.0342 583.8 m 9
 227.034 654.8 l 18
 271.562 673.075 318.827 643.803 318.924 589.8 c 10
 320.034 -32.2002 l 17
 268.519 -54.623 215.362 -61.0117 158.518 -56.2002 c 9
 206.518 443.8 l 22
 209.347 472.508 189.636 488.194 168.518 486.8 c 14
 51.0342 466.8 l 17
 43.6328 501.8 41.3516 548.8 54.0342 583.8 c 9
EndSplineSet
EndChar

StartChar: two
Encoding: 50 50 29
Width: 663
VWidth: 1000
Flags: MW
LayerCount: 2
Fore
SplineSet
132.714 625.3 m 9
 391.208 656 l 2
 495.752 668.416 560.053 622.402 567.208 535 c 10
 581.208 364 l 18
 586.279 302.059 546.744 257.212 482.208 242 c 10
 197.208 159 l 18
 132.703 140.214 142.704 61.6729 218.208 72 c 2
 600.208 115 l 1
 607.979 63.7002 600.499 5.7002 581.208 -43 c 9
 135.208 -40 l 18
 61.7021 -39.7646 36.5195 20.499 56.7021 94.7002 c 10
 90.7021 219.7 l 18
 107.056 263.191 142.887 297.114 185.208 300 c 2
 361.208 312 l 2
 425.325 317.771 459.208 360 458.208 415 c 0
 456.653 500.521 405.347 553.023 292.714 517.3 c 2
 115.208 461 l 17
 105.273 519.079 112.478 583.739 132.714 625.3 c 9
EndSplineSet
EndChar

StartChar: three
Encoding: 51 51 30
Width: 667
VWidth: 1000
Flags: HMW
LayerCount: 2
Fore
SplineSet
84.4053 656.6 m 9
 480.161 634 l 22
 551.282 628.81 606.496 590.166 602.261 517 c 14
 595.661 403 l 22
 592.424 347.103 557.161 309 497.722 300.6 c 5
 567.061 297 606.383 259.51 601.161 192 c 14
 591.261 64 l 22
 586.312 0.0351562 539.452 -29.9307 468.061 -33 c 14
 87.7061 -47 l 17
 75.6045 8 78.9043 64 95.4053 114 c 9
 397.661 72 l 22
 423.965 67.5361 441.682 79.7764 448.261 106 c 14
 462.561 163 l 22
 472.275 201.723 451.621 229.476 396.522 230.6 c 14
 224.105 233 l 17
 219.705 277 231.844 348.4 251.605 380 c 9
 383.36 358 l 22
 438.394 342.276 471.863 366.896 462.561 411 c 14
 449.399 473.4 l 22
 440.95 513.462 415.745 529.83 377.899 524.4 c 14
 67.9053 487.6 l 17
 60.3213 535.601 68.1982 608.6 84.4053 656.6 c 9
EndSplineSet
EndChar

StartChar: four
Encoding: 52 52 31
Width: 694
VWidth: 1000
Flags: HMW
LayerCount: 2
Fore
SplineSet
164.481 653 m 17
 224.032 663.188 283.569 665.214 343.12 650 c 9
 185.12 380 l 18
 160.71 338.287 179.896 303.384 229.12 296 c 10
 469.12 260 l 25
 489.258 616 l 17
 526.123 648.967 597.53 642.027 629.12 647 c 9
 587.12 -38 l 21
 533.492 -50.0117 478.747 -54.5928 425.12 -40 c 9
 459.12 166 l 25
 113.12 160 l 18
 48.1523 158.873 21.9951 195.606 41.1201 257 c 10
 164.481 653 l 17
EndSplineSet
EndChar

StartChar: five
Encoding: 53 53 32
Width: 676
VWidth: 1000
Flags: MW
LayerCount: 2
Back
SplineSet
115 605.3 m 25
 64 358.3 l 18
 37.4424 229.68 109.34 235.279 204 260.3 c 10
 331.5 294 l 22
 358.466 301.128 377.911 295.191 391 267 c 14
 436.5 169 l 22
 459.499 119.464 438.219 88.3174 396.5 94 c 6
 73.5 138 l 17
 46.5 89 39.9892 28.6178 54.5 -24 c 9
 375.5 -32 l 18
 482.533 -34.6675 547.947 40.9129 532.5 139 c 10
 512.5 266 l 18
 497.065 364.008 442.667 416.505 348.5 406 c 10
 243 391 l 18
 219.871 387.712 195.075 379.088 197 409 c 10
 203.5 510 l 25
 497.5 468 l 17
 540.572 514.566 547.187 570.142 536.5 630 c 9
 115 605.3 l 25
EndSplineSet
Fore
SplineSet
122.638 635.3 m 25
 609.388 660 l 21
 621.145 600.142 613.867 544.566 566.487 498 c 13
 219.987 540 l 25
 218.338 409 l 18
 217.961 379.027 243.28 389.614 268.938 391 c 10
 435.588 400 l 22
 539.171 410.505 617.512 356.923 615.987 260 c 14
 613.788 120 l 22
 612.229 20.7148 558.807 -54.2725 441.088 -51 c 14
 58.2881 -41 l 17
 42.3262 11.6182 49.4873 72 79.1875 121 c 9
 448.844 77 l 6
 493.335 71.3506 505.562 98.334 491.523 149.75 c 14
 458.688 270 l 22
 445.474 297.65 422.356 305.784 395.201 296.19 c 14
 226.038 260.3 l 18
 119.043 237.6 53.9785 259.44 72.0381 358.3 c 10
 122.638 635.3 l 25
EndSplineSet
EndChar

StartChar: six
Encoding: 54 54 33
Width: 653
VWidth: 1000
Flags: HMW
LayerCount: 2
Back
SplineSet
194.006 243 m 18
 195.127 279.98 218.393 303.69 241.514 300.4 c 10
 413 276 l 18
 464.896 268.616 497.136 260.529 493 214 c 10
 486.994 144 l 18
 484.936 120.007 473.02 105.839 448.994 102 c 10
 254.994 71 l 18
 214.232 64.4863 191.425 80.0518 191.994 116 c 10
 194.006 243 l 18
441 701 m 9
 116 520 l 18
 69.6709 494.198 43.4865 433.574 54.4805 347.6 c 10
 93.9941 38.5996 l 18
 99.623 -5.41699 130.848 -35.9023 178.994 -36 c 10
 474.994 -36.5996 l 18
 536.994 -36.7256 576.764 -3.51465 578.994 53 c 10
 584.48 317 l 18
 585.728 377.006 546.51 407.825 485.994 407 c 10
 266 404 l 18
 200.012 403.1 202.164 459.366 250 474 c 10
 554 567 l 17
 537 619 493 673 441 701 c 9
EndSplineSet
Fore
SplineSet
188.536 243 m 10
 186.424 116 l 18
 185.826 80.0518 209.772 64.4863 252.574 71 c 10
 456.273 102 l 18
 481.5 105.839 494.013 120.007 496.174 144 c 10
 502.479 214 l 18
 506.822 260.529 472.97 268.616 418.479 276 c 10
 238.419 300.4 l 18
 214.143 303.69 189.713 279.98 188.536 243 c 10
447.88 701 m 17
 502.479 673 548.68 619 566.53 567 c 9
 247.33 474 l 18
 197.103 459.366 194.842 403.1 264.13 404 c 10
 495.124 407 l 18
 558.665 407.825 599.844 377.006 598.533 317 c 10
 592.773 53 l 18
 590.432 -3.51465 548.674 -36.7256 483.574 -36.5996 c 10
 172.773 -36 l 18
 122.22 -35.9023 87.3389 -5.62598 83.5234 38.5996 c 10
 56.2295 355 l 18
 49.2471 435.946 72.1797 501.598 120.825 527.4 c 10
 447.88 701 l 17
EndSplineSet
EndChar

StartChar: seven
Encoding: 55 55 34
Width: 585
VWidth: 1000
Flags: MW
LayerCount: 2
Back
SplineSet
96.002 658 m 21
 62.9453 615.351 49.8223 566.307 50.002 513 c 13
 432 543 l 22
 472.593 546.188 493.033 513.606 478 475 c 14
 191.002 15 l 21
 218.259 -30.832 264.085 -56.9561 326.002 -66 c 13
 592.002 483 l 22
 638.964 579.926 580.989 647.121 505.002 639 c 14
 374.002 625 l 22
 356.626 624.616 339.296 625.909 321.002 628 c 14
 96.002 658 l 21
EndSplineSet
Fore
SplineSet
66.002 658 m 9
 291.002 628 l 18
 309.296 625.909 326.626 624.616 344.002 625 c 10
 475.002 639 l 18
 550.989 647.121 623.431 571.468 562.002 483 c 2
 398.133 247 l 2
 386.636 231.865 376.957 214.112 371 191 c 2
 296.002 -66 l 1
 238 -59 186 -38 153 -4 c 1
 238.479 223 l 2
 252.521 260.291 275.241 297.84 302.375 326 c 2
 418 446 l 2
 457.779 484.013 440.021 537.638 378 534 c 10
 20.002 513 l 17
 19.8223 566.307 32.9453 615.351 66.002 658 c 9
EndSplineSet
EndChar

StartChar: nine
Encoding: 57 57 35
Width: 693
VWidth: 1000
Flags: MW
LayerCount: 2
Back
SplineSet
451.234 371 m 18
 450.113 334.02 426.847 310.31 403.727 313.6 c 10
 232.24 338 l 18
 180.344 345.384 148.104 353.471 152.24 400 c 10
 158.246 470 l 18
 160.304 493.992 172.22 508.16 196.246 512 c 10
 390.246 543 l 18
 431.008 549.514 453.815 533.948 453.246 498 c 10
 451.234 371 l 18
204.24 -87 m 9
 529.24 94 l 18
 575.569 119.802 601.754 180.426 590.76 266.399 c 10
 551.246 575.4 l 18
 545.617 619.417 514.393 649.902 466.246 650 c 10
 170.246 650.6 l 18
 108.246 650.726 68.4766 617.515 66.2461 561 c 10
 60.7598 297 l 18
 59.5117 236.993 98.7305 206.175 159.246 207 c 10
 379.24 210 l 18
 445.229 210.899 443.076 154.634 395.24 140 c 10
 91.2402 47 l 17
 108.24 -5 152.24 -59 204.24 -87 c 9
EndSplineSet
Fore
SplineSet
508.354 387.601 m 10
 499.566 498 l 18
 496.924 531.192 475.104 549.514 430.267 543 c 10
 216.866 512 l 18
 190.437 508.16 177.047 494.012 175.066 470 c 10
 170.66 416.601 l 18
 166.741 369.124 201.523 361.662 258.66 354.601 c 10
 456.095 330.2 l 18
 488.915 326.144 511.363 349.781 508.354 387.601 c 10
79.0957 91 m 9
 420.096 63 l 18
 450.655 62.6299 466.425 81.5469 467.762 105.667 c 2
 464.667 188.399 l 2
 463.356 223.436 448.377 246.473 410.195 246 c 10
 178.366 223.601 l 18
 112.165 217.204 68.6582 253.594 70.0312 313.601 c 10
 73.8662 561 l 18
 74.7432 617.554 120.066 650.71 188.267 650.6 c 10
 559.796 650 l 18
 612.757 649.902 658.933 619.479 653.296 575.4 c 2
 576.296 50 l 2
 568.436 2.66113 525.786 -17.9297 483.896 -23 c 10
 95.5957 -70 l 17
 77.9951 -23 73.5957 36 79.0957 91 c 9
EndSplineSet
EndChar

StartChar: eight
Encoding: 56 56 36
Width: 684
VWidth: 1000
Flags: MW
LayerCount: 2
Back
SplineSet
-190.549 449.343 m 25,0,-1
191.447 232 m 10,1,-1
 153.448 66 l 18,2,-1
 148.571 44.6934 172.34 40.8086 200.448 45 c 10,5,-1
 428.447 79 l 18,6,-1
 461.584 74.1504 457.283 82.7031 476.448 98 c 10,9,-1
 500.448 213 l 18,10,-1
 505.821 238.744 472.618 237.766 456.448 241 c 10,13,-1
 225.447 273 l 18,14,-1
 196.4 277.023 192.288 248.708 191.447 232 c 10,1,-1
165.447 501 m 14,17,-1
 176.758 433 l 22,18,-1
 179.298 417.728 194.061 417.628 223.758 412 c 14,21,-1
 408.447 377 l 18,22,-1
 435.323 377.966 426.985 386.994 446.447 427 c 10,25,-1
 482.447 501 l 18,26,-1
 496.694 530.285 485.665 554.213 453.447 553 c 10,29,-1
 201.447 545 l 22,30,-1
 176.27 544.201 160.781 529.052 165.447 501 c 14,17,-1
99.4473 533 m 18,33,-1
 98.8643 621.021 149.923 664.688 227.447 659 c 10,36,-1
 486.447 640 l 18,37,-1
 559.486 632.432 573.885 572.086 553.447 498 c 10,40,-1
 513.447 353 l 18,41,-1
 510.646 342.847 520.959 335.022 531.885 328 c 0,44,-1
 561.447 309 579.865 264.881 572.447 220 c 10,47,-1
 552.447 99 l 18,48,-1
 540.519 26.8252 545.238 -48.2842 461.447 -49 c 10,51,-1
 161.447 -52 l 18,52,-1
 71.4463 -52.9004 29.8418 27.4053 59.4473 109 c 10,55,-1
 141.446 335 l 18,56,-1
 144.015 342.077 127.336 335.06 119.447 349 c 0,59,-1
 113.328 359.812 101.6 371.461 100.447 382 c 10,62,-1
 99.4473 533 l 18,33,-1
EndSplineSet
Fore
SplineSet
-211.755 449.343 m 25,0,-1
237.648 235 m 10,1,-1
 201.9 89.5 l 18,2,-1
 194.748 60.3887 216.631 43.8086 247.55 48 c 10,5,-1
 469.141 79 l 18,6,-1
 505.553 84.0938 521.735 105.603 517.05 135 c 10,9,-1
 506.05 204 l 18,10,-1
 501.958 230.034 482.411 242.801 455.45 247 c 10,13,-1
 298.15 271.5 l 18,14,-1
 266.388 276.605 244.656 263.524 237.648 235 c 10,1,-1
229.607 503 m 10,17,-1
 222.8 458.5 l 18,18,-1
 218.579 430.921 236.899 413.708 269.55 408 c 10,21,-1
 383.95 388 l 18,22,-1
 409.327 383.755 428.334 393.279 445.55 418 c 10,25,-1
 502.2 499.5 l 18,26,-1
 521.336 527.032 505.749 552.436 470.3 551.5 c 10,29,-1
 269.207 547 l 18,30,-1
 247.109 546.506 233.917 531.167 229.607 503 c 10,17,-1
107.242 533 m 18,33,-1
 106.66 621.021 162.766 664.688 248.041 659 c 10,36,-1
 532.941 640 l 18,37,-1
 613.284 632.432 629.123 572.086 606.641 498 c 10,40,-1
 562.641 353 l 18,41,-1
 559.561 342.847 570.905 335.022 582.923 328 c 0,44,-1
 615.441 309 635.701 264.881 627.541 220 c 10,47,-1
 605.541 99 l 18,48,-1
 592.42 26.8252 597.611 -48.2842 505.441 -49 c 10,51,-1
 175.441 -52 l 18,52,-1
 76.4414 -52.9004 23.5977 30.04 63.2422 109 c 10,55,-1
 137.55 257 l 18,56,-1
 144.441 274.31 152.199 296.757 142.5 302 c 0,59,-1
 122.15 313 108.564 333.076 108.4 358 c 10,62,-1
 107.242 533 l 18,33,-1
EndSplineSet
EndChar

StartChar: exclam
Encoding: 33 33 37
Width: 361
VWidth: 1000
Flags: HMW
LayerCount: 2
Back
SplineSet
61.0996 106.5 m 18
 65.4141 134.854 88.9307 147.809 119.6 148.5 c 10
 186.1 150 l 18
 208.28 150.5 223.57 131.498 225.1 110.5 c 10
 230.6 35 l 18
 232.864 3.91016 209.712 -13.5654 177.1 -11 c 10
 88.0996 -4 l 18
 60.8574 -1.85742 46.8486 12.8535 50.5996 37.5 c 10
 61.0996 106.5 l 18
51.0996 724 m 17
 122.576 730.686 190.269 722.669 251.1 688 c 9
 194.1 248 l 17
 165.435 239.004 118.1 240 88.0996 252 c 9
 51.0996 724 l 17
EndSplineSet
Fore
SplineSet
88.9951 -8.65039 m 13
 101.122 143.6 l 21
 153.097 159.875 201.607 159.35 246.653 144.65 c 13
 253.005 -3.40039 l 21
 201.607 -18.625 145.591 -20.2002 88.9951 -8.65039 c 13
81.0996 724 m 17
 152.576 730.686 220.269 722.669 281.1 688 c 9
 224.1 248 l 17
 195.435 239.004 148.1 240 118.1 252 c 9
 81.0996 724 l 17
EndSplineSet
EndChar

StartChar: quotedbl
Encoding: 34 34 38
Width: 490
VWidth: 1000
Flags: HMW
LayerCount: 2
Back
SplineSet
283 765 m 17
 362 764.189 386 758.797 465 734 c 9
 392 440 l 17
 326.342 420.162 329 415 270 424 c 9
 283 765 l 17
13 765 m 17
 92 764.189 116 758.797 195 734 c 9
 122 440 l 17
 56.3418 420.162 59 415 0 424 c 9
 13 765 l 17
EndSplineSet
Fore
SplineSet
321 754 m 21
 391 757 443 747 500 723 c 13
 441 431 l 21
 394 413 348 407 303 419 c 13
 321 754 l 21
61 765 m 17
 129 762 186 743 239 713 c 9
 168 429 l 17
 125 413 84 413 40 433 c 9
 61 765 l 17
EndSplineSet
EndChar

StartChar: percent
Encoding: 37 37 39
Width: 744
VWidth: 1000
Flags: HMW
LayerCount: 2
Back
SplineSet
628.624 235 m 10
 592.876 89.5 l 18
 585.724 60.3887 607.952 41.7588 638.526 48 c 10
 761 73 l 18
 792.856 79.5026 810.193 105.603 805.509 135 c 10
 794.509 204 l 18
 790.416 230.034 780.961 254.801 754 259 c 10
 689.126 271.5 l 18
 657.534 277.587 635.632 263.524 628.624 235 c 10
702 399 m 2
 846.482 336 l 18
 894.772 314.944 927.656 275.13 916 220 c 10
 879 45 l 18
 866.036 -16.3162 835.904 -48.197 779 -49 c 10
 566.417 -52 l 18
 467.415 -53.3975 415.899 29.3887 454.219 109 c 10
 563 335 l 18
 590.761 392.675 648.565 422.3 702 399 c 2
298.359 253.6 m 6
 152.5 298.6 l 22
 130.398 305.418 108.564 333.076 108.4 358 c 14
 107.242 533 l 22
 106.66 621.021 163.077 668.237 248.041 659 c 14
 422.8 640 l 22
 503.143 632.433 518.982 572.086 496.5 498 c 10
 452.5 353 l 22
 429.97 278.753 365.078 241.872 298.359 253.6 c 6
229.607 503 m 14
 222.8 458.5 l 22
 218.579 430.921 220.591 400.605 237.5 396.6 c 14
 273.809 388 l 22
 298.845 382.07 318.193 393.279 335.409 418 c 14
 392.059 499.5 l 22
 411.195 527.032 395.608 552.437 360.159 551.5 c 14
 269.207 547 l 22
 247.128 545.907 233.917 531.167 229.607 503 c 14
EndSplineSet
Fore
SplineSet
549.222 636.767 m 21
 590.222 626.767 638.222 595.767 657.222 562.767 c 13
 216.222 -12.2334 l 21
 158.347 -0.458008 119.55 30.5342 94.5498 85.5332 c 13
 549.222 636.767 l 21
526.449 126.997 m 10
 508.933 55.7031 l 18
 505.428 41.4385 516.32 32.3096 531.302 35.3682 c 10
 591.312 47.6182 l 18
 606.923 50.8037 615.418 63.5928 613.123 77.9971 c 10
 607.733 111.808 l 18
 605.729 124.564 601.095 136.699 587.884 138.757 c 10
 556.096 144.882 l 18
 540.615 147.865 529.883 140.975 526.449 126.997 c 10
562.993 257.6 m 2
 664.131 213.5 l 18
 697.934 198.761 720.953 170.891 712.793 132.3 c 10
 686.894 9.7998 l 18
 677.818 -33.1211 656.727 -55.4375 616.894 -56 c 10
 468.085 -58.0996 l 18
 398.784 -59.0781 362.723 -1.12793 389.547 54.5996 c 10
 465.693 212.8 l 18
 485.126 253.173 525.589 273.91 562.993 257.6 c 2
203.785 378.521 m 2
 101.684 410.021 l 18
 86.2119 414.793 70.9277 434.153 70.8135 451.601 c 10
 70.0029 574.101 l 18
 69.5957 635.715 109.087 668.767 168.562 662.3 c 10
 290.894 649 l 18
 347.133 643.703 358.221 601.46 342.483 549.601 c 10
 311.684 448.101 l 18
 295.912 396.127 250.488 370.311 203.785 378.521 c 2
168.188 547.747 m 10
 164.52 523.761 l 18
 162.243 508.896 163.328 492.557 172.442 490.397 c 10
 192.013 485.762 l 18
 205.507 482.566 215.936 488.607 225.215 501.932 c 10
 255.748 545.861 l 18
 266.064 560.7 257.662 574.394 238.556 573.889 c 10
 189.531 571.463 l 18
 177.631 570.874 170.51 562.93 168.188 547.747 c 10
EndSplineSet
EndChar

StartChar: quotesingle
Encoding: 39 39 40
Width: 225
VWidth: 1000
Flags: HMW
LayerCount: 2
Back
SplineSet
125 350 m 25
 25 350 l 25
 25 500 l 25
 125 500 l 29
 125 350 l 25
EndSplineSet
Fore
SplineSet
53 765 m 17
 132 764.189 156 758.797 235 734 c 9
 162 440 l 17
 96.3418 420.162 99 415 40 424 c 9
 53 765 l 17
EndSplineSet
EndChar

StartChar: parenleft
Encoding: 40 40 41
Width: 335
VWidth: 1000
Flags: HMW
LayerCount: 2
Back
SplineSet
181.463 772 m 5
 238.351 774.948 289.237 761.749 335.463 736 c 5
 112.455 338 110.455 298 330.455 -115 c 5
 283.483 -146.858 231.379 -169.812 168.455 -174 c 5
 6.45508 116 10.4551 484 181.463 772 c 5
EndSplineSet
Fore
SplineSet
181.463 772 m 5
 238.351 774.948 289.237 761.749 335.463 736 c 5
 112.455 338 104.792 245.843 330.455 -115 c 5
 283.483 -146.858 231.379 -169.812 168.455 -174 c 5
 6.45508 116 10.4551 484 181.463 772 c 5
EndSplineSet
EndChar

StartChar: parenright
Encoding: 41 41 42
Width: 320
VWidth: 1000
Flags: HMW
LayerCount: 2
Back
SplineSet
129.242 -145.8 m 5
 72.3545 -148.748 21.4678 -135.549 -24.7578 -109.8 c 5
 198.25 288.2 200.25 328.2 -19.75 741.2 c 5
 27.2217 773.059 79.3262 796.013 142.25 800.2 c 5
 304.25 510.2 300.25 142.2 129.242 -145.8 c 5
EndSplineSet
Fore
SplineSet
-14.2744 718.215 m 1
 28.9531 751.92 77.7344 776.373 136.503 784.518 c 1
 318.023 457.187 294.101 159.656 145.399 -159.526 c 1
 91.9453 -154.591 42.1641 -124.329 13.749 -84.2959 c 1
 190.935 300.321 197.673 402.262 -14.2744 718.215 c 1
EndSplineSet
EndChar

StartChar: asterisk
Encoding: 42 42 43
Width: 739
VWidth: 0
Flags: HMW
LayerCount: 2
Fore
SplineSet
317 49 m 5
 249 48 189 71 147 118 c 5
 311.572 296.733 248.792 276.221 81.0723 229.4 c 5
 67 305 81 379 123 432 c 5
 323 303 368 347 279.872 534.601 c 5
 348 575 421 579 494.072 564 c 5
 436 366 421 324 612 461 c 5
 657 417 673 344 653.672 282.601 c 5
 427 308 470 255 612 152 c 5
 579 100 527 66 459.072 55.8008 c 5
 398.438 246.299 370.194 295.503 317 49 c 5
EndSplineSet
EndChar

StartChar: plus
Encoding: 43 43 44
Width: 618
VWidth: 0
Flags: HMW
LayerCount: 2
Fore
SplineSet
106 356.45 m 9
 206.75 345.95 l 18
 266.681 346.535 269.26 376.979 268.25 408.95 c 10
 265.5 496 l 17
 299.346 507.23 336.324 508.951 375.5 504 c 9
 377.5 411.2 l 18
 378.287 374.697 386.824 347.807 428.5 346.7 c 10
 533 354.45 l 17
 542.854 311.888 539.044 271.102 528.5 231.2 c 9
 421.5 233.2 l 18
 386.965 233.846 360.234 205.604 361.5 177.2 c 10
 366.5 65 l 17
 325.831 60.1475 282.998 61.7471 237 72.75 c 9
 246.5 167 l 18
 250.927 210.917 221.062 220.837 186.5 223 c 10
 65.5 219.2 l 17
 68.374 269.73 79.4678 316.562 106 356.45 c 9
EndSplineSet
EndChar

StartChar: comma
Encoding: 44 44 45
Width: 332
VWidth: 1000
Flags: HMW
LayerCount: 2
Back
SplineSet
270 129 m 13
 223 -153 l 21
 165.402 -175.991 95 -171 42 -156 c 9
 130.5 97.5 l 17
 185.97 124.659 222.409 128.25 270 129 c 13
0 100 m 1
 100 100 l 5
 100 -100 l 1
 0 -100 l 1
 0 100 l 1
EndSplineSet
Fore
SplineSet
60 -176.5 m 9
 107 105.5 l 17
 164.598 128.491 235 123.5 288 108.5 c 9
 199.5 -145 l 17
 144.03 -172.159 107.591 -175.75 60 -176.5 c 9
EndSplineSet
EndChar

StartChar: hyphen
Encoding: 45 45 46
Width: 539
VWidth: 0
Flags: HMW
LayerCount: 2
Fore
SplineSet
133 329 m 9
 469 346 l 17
 473.33 284.57 457.324 226.099 425 170 c 9
 70 187 l 17
 83.2676 240.387 102.729 288.924 133 329 c 9
EndSplineSet
EndChar

StartChar: period
Encoding: 46 46 47
Width: 301
VWidth: 1000
Flags: MW
LayerCount: 2
Back
SplineSet
94.7373 -11.335 m 18
 67.458 -9.72266 55.1064 3.1416 53.5703 31.5654 c 10
 50.1035 95.6982 l 18
 48.5439 124.542 64.6504 145.351 95.6045 147.264 c 10
 172.737 152.031 l 18
 214.318 154.602 243.114 131.495 241.203 88.7656 c 10
 238.608 30.6914 l 18
 237.122 -2.56348 217.354 -18.584 182.703 -16.5352 c 10
 94.7373 -11.335 l 18
EndSplineSet
Fore
SplineSet
59.0479 -3.46289 m 13
 62.8994 144.655 l 21
 118.896 164.255 176.646 162.505 231.247 144.653 c 13
 230.543 -6.19434 l 21
 180.146 -25.0947 113.296 -22.9951 59.0479 -3.46289 c 13
EndSplineSet
EndChar

StartChar: slash
Encoding: 47 47 48
Width: 450
VWidth: 1000
Flags: HMW
LayerCount: 2
Back
SplineSet
20.5 648 m 29
 272.5 612 l 29
 90.5 -42 l 29
 -135.5 -18 l 29
 20.5 648 l 29
EndSplineSet
Fore
SplineSet
314 747.421 m 5
 376.5 751.354 427.5 762.829 490 740 c 5
 329.92 453.366 224 145.421 126 -144 c 5
 78.3916 -152.397 32.7832 -150.64 -9.5 -132 c 5
 118.99 162.314 234 441.421 314 747.421 c 5
EndSplineSet
EndChar

StartChar: colon
Encoding: 58 58 49
Width: 326
VWidth: 1000
Flags: HMW
LayerCount: 2
Back
SplineSet
108.5 412.5 m 22
 75.9699 412.193 56.7695 430 56.7695 467.4 c 14
 56.7695 518.101 l 22
 56.7695 560.992 78.5209 586.26 122.5 587 c 14
 199.77 588.301 l 22
 226.131 588.745 243.137 572.366 241.37 544.101 c 14
 237.47 481.7 l 22
 234.704 437.456 209.901 413.457 161.5 413 c 14
 108.5 412.5 l 22
54 51.5 m 14
 63.4697 102.9 l 22
 70.1611 139.22 94.7162 157.347 128 156.5 c 14
 190.87 154.9 l 22
 223.245 154.076 243.214 131.38 241.57 97.7002 c 14
 238.97 44.4004 l 22
 237.059 5.24107 211.703 -20.6717 169.5 -19.5 c 14
 115.47 -18 l 22
 59.2515 -16.4393 46.6732 11.7312 54 51.5 c 14
EndSplineSet
Fore
SplineSet
61.0684 423.696 m 9
 64.9971 574.777 l 17
 122.113 594.77 181.019 592.983 236.711 574.775 c 9
 235.993 420.91 l 17
 184.589 401.633 116.402 403.774 61.0684 423.696 c 9
60 -4.91699 m 9
 63.9287 146.164 l 17
 121.045 166.155 179.95 164.37 235.643 146.162 c 9
 234.925 -7.70312 l 17
 183.521 -26.9814 115.333 -24.8398 60 -4.91699 c 9
EndSplineSet
EndChar

StartChar: semicolon
Encoding: 59 59 50
Width: 357
VWidth: 1000
Flags: HMW
LayerCount: 2
Fore
SplineSet
94.5332 428.101 m 9
 98.3848 576.219 l 17
 154.382 595.819 212.132 594.068 266.732 576.217 c 9
 266.028 425.369 l 17
 215.632 406.469 148.781 408.568 94.5332 428.101 c 9
105.6 129.625 m 21
 166.404 141.997 214.123 135.724 271.2 113.8 c 9
 169.7 -181.11 l 17
 127.567 -196.772 88.4326 -190.151 50 -178.311 c 9
 105.6 129.625 l 21
EndSplineSet
EndChar

StartChar: less
Encoding: 60 60 51
Width: 742
VWidth: 1000
Flags: HMW
LayerCount: 2
Fore
SplineSet
563.712 596.675 m 17
 598.712 554.675 614.712 500.675 612.712 435.675 c 9
 274.712 310.675 l 18
 219.491 290.253 222.495 277.294 275.668 261.387 c 10
 635.712 153.675 l 17
 631.712 87.6748 613.712 38.6748 572 -11 c 9
 160.712 192.675 l 18
 67.7568 238.707 76.0557 320.938 158.712 367.675 c 10
 563.712 596.675 l 17
EndSplineSet
EndChar

StartChar: greater
Encoding: 62 62 52
Width: 742
VWidth: 1000
Flags: HMW
LayerCount: 2
Back
SplineSet
231.186 785.359 m 17
 157.461 776 97.4609 736 54 680.56 c 9
 314 358.56 l 18
 350.986 312.753 361.566 255.416 324 214.56 c 10
 50 -83.4404 l 17
 77.4609 -143 142.461 -190 209.186 -202.641 c 9
 450.461 183 l 18
 489.656 245.647 485.967 310.228 453.186 371.359 c 10
 231.186 785.359 l 17
EndSplineSet
Fore
SplineSet
172.496 -3.84766 m 17
 138.982 39.3486 124.878 93.873 129.145 158.764 c 9
 471.301 271.892 l 18
 527.2 290.374 524.651 303.43 472.065 321.184 c 10
 116 441.395 l 17
 122.301 507.215 142 555.557 185.42 603.746 c 9
 589.35 385.842 l 18
 680.642 336.593 669.479 254.702 585.24 210.878 c 10
 172.496 -3.84766 l 17
EndSplineSet
EndChar

StartChar: equal
Encoding: 61 61 53
Width: 628
VWidth: 0
Flags: HMW
LayerCount: 2
Fore
SplineSet
114.694 191.5 m 9
 533.694 231.5 l 17
 546.741 178.223 545.121 126.112 524.694 75.5 c 9
 137.694 78.5 l 17
 110.506 115.067 114.726 149.711 114.694 191.5 c 9
138.694 470.5 m 9
 533.694 456.5 l 17
 552.999 414.541 549.328 379.57 542.694 345.5 c 9
 100.694 310.5 l 17
 97.3262 366.172 105.609 420.146 138.694 470.5 c 9
EndSplineSet
EndChar

StartChar: question
Encoding: 63 63 54
Width: 537
VWidth: 1000
Flags: HMW
LayerCount: 2
Back
SplineSet
157.737 -11.335 m 18
 130.458 -9.72266 118.106 3.1416 116.57 31.5654 c 10
 113.104 95.6982 l 18
 111.544 124.542 127.65 145.351 158.604 147.264 c 10
 235.737 152.031 l 18
 277.318 154.602 306.114 131.495 304.203 88.7656 c 10
 301.608 30.6914 l 18
 300.122 -2.56348 280.354 -18.584 245.703 -16.5352 c 10
 157.737 -11.335 l 18
112 717.6 m 9
 341 645 l 18
 458.683 607.691 483.76 493.115 390 419 c 10
 285 336 l 18
 266.572 321.434 267.065 302.397 273 284 c 10
 283 253 l 17
 239.02 225.281 197 210 140.723 206.6 c 9
 117 279 l 18
 108.668 307.665 121.469 324.568 143 341 c 10
 295 457 l 18
 333.73 483.138 322.876 524.916 277 533 c 10
 50 573 l 17
 60 616 76 687 112 717.6 c 9
EndSplineSet
Fore
SplineSet
173.5 -7 m 9
 184 138 l 17
 229 153.5 283.5 153 322.5 139 c 9
 328 -2 l 17
 283.5 -16.5 222.5 -18 173.5 -7 c 9
142 717.6 m 9
 371 645 l 18
 488.683 607.691 513.76 493.115 420 419 c 10
 315 336 l 18
 296.572 321.434 297.065 302.397 303 284 c 10
 313 253 l 17
 269.02 225.281 227 210 170.723 206.6 c 9
 137.604 298.601 l 18
 129.271 327.266 142.072 344.168 163.604 360.601 c 10
 325 457 l 18
 365.115 480.96 353.305 527.921 307 533 c 10
 73.6035 558.601 l 17
 77 617.5 101 672 142 717.6 c 9
EndSplineSet
EndChar

StartChar: backslash
Encoding: 92 92 55
Width: 445
VWidth: 1000
Flags: HMW
LayerCount: 2
Fore
SplineSet
163.213 736.543 m 9
 228.779 482.014 l 18
 250.939 395.986 278.855 304.4 316.609 212.333 c 10
 445.773 -102.648 l 17
 393.698 -124.192 341.967 -135.679 286.305 -124.628 c 9
 218 137 l 18
 194.609 226.593 172.618 308.35 141.667 386.994 c 10
 16.835 704.178 l 17
 63.8213 725.602 106.167 735.637 163.213 736.543 c 9
EndSplineSet
EndChar

StartChar: bracketleft
Encoding: 91 91 56
Width: 456
VWidth: 1000
Flags: HMW
LayerCount: 2
Fore
SplineSet
72.6611 656 m 18
 65.7021 706.33 94.9092 743.278 152.661 748 c 10
 399.28 764 l 17
 416.28 714 413.422 667.6 402.422 607.6 c 9
 277.495 617.6 l 18
 238.005 620.215 207.523 599.689 207.245 552.35 c 2
 204.041 7.09961 l 2
 204.132 -39.8857 226.969 -59.5664 281.114 -57.4004 c 10
 424.422 -42.4004 l 17
 435.921 -92.5225 440.28 -141 424.28 -200 c 9
 172.28 -194 l 18
 96.8428 -188.02 62.7549 -151.873 71.2803 -92 c 10
 115.28 217 l 18
 121.959 263.9 120.901 307.118 114.28 355 c 10
 72.6611 656 l 18
EndSplineSet
EndChar

StartChar: bracketright
Encoding: 93 93 57
Width: 456
VWidth: 1000
Flags: HMW
LayerCount: 2
Fore
SplineSet
376.787 -95.0791 m 18
 382.867 -145.523 353.02 -181.956 295.193 -185.669 c 10
 48.333 -197.362 l 17
 32.208 -147.073 35.876 -100.73 47.9219 -40.9307 c 9
 172.654 -53.1094 l 18
 212.093 -56.4141 242.928 -36.4238 244.032 10.9043 c 2
 256.752 556.016 l 2
 257.481 602.995 234.991 623.071 180.816 621.851 c 10
 37.2686 609.354 l 17
 26.6465 659.669 23.1338 708.215 40.1611 766.927 c 9
 292.018 756.53 l 18
 367.34 749.233 400.791 712.498 391.223 652.783 c 10
 341.836 344.598 l 18
 334.34 297.821 334.644 254.592 340.428 206.602 c 10
 376.787 -95.0791 l 18
EndSplineSet
EndChar

StartChar: grave
Encoding: 96 96 58
Width: 250
VWidth: 1000
Flags: HMW
LayerCount: 2
Fore
SplineSet
1.53906 717.634 m 17
 74.0986 748.888 98.2266 753.678 180.5 763 c 9
 232.824 464.626 l 21
 199.5 445 153.941 440.482 102.5 444 c 13
 1.53906 717.634 l 17
EndSplineSet
EndChar

StartChar: afii57645
Encoding: 1470 1470 59
Width: 610
VWidth: 1000
Flags: HMW
LayerCount: 2
Back
SplineSet
289.575 450.67 m 10
 375.575 470.67 l 17
 384.307 531.284 380.302 589.039 353.575 641.67 c 9
 261.075 621.67 l 18
 235.54 616.148 208.703 616.927 181.575 619.67 c 10
 92.5752 628.67 l 17
 59.9922 581.429 49.4922 525.205 49.5752 464.67 c 9
 122.575 456.17 l 18
 183.44 449.083 243.363 439.923 289.575 450.67 c 10
EndSplineSet
Fore
SplineSet
371.451 464.159 m 18
 324.51 457.256 270.432 458.271 209.301 462.496 c 10
 86.3008 470.996 l 17
 86.2188 531.531 95.5684 572.592 128.15 619.833 c 9
 267.65 598 l 18
 294.859 596.238 321.279 596.369 347.15 600 c 10
 489.15 632.833 l 17
 515.877 580.202 516.184 544.773 507.451 484.159 c 9
 371.451 464.159 l 18
EndSplineSet
EndChar

StartChar: uni0000
Encoding: 0 0 60
Width: 600
VWidth: 1000
Flags: MW
LayerCount: 2
Back
SplineSet
150 550 m 5
 150 -50 l 5
 550 -50 l 5
 550 550 l 5
 150 550 l 5
100 600 m 5
 600 600 l 5
 600 -100 l 5
 100 -100 l 5
 100 600 l 5
EndSplineSet
Fore
SplineSet
200 500 m 1
 200 0 l 1
 400 0 l 5
 400 500 l 5
 200 500 l 1
100 600 m 1
 500 600 l 5
 500 -100 l 5
 100 -100 l 1
 100 600 l 1
EndSplineSet
EndChar

StartChar: A
Encoding: 65 65 61
Width: 600
VWidth: 1000
Flags: MW
LayerCount: 2
Fore
SplineSet
200 500 m 1
 200 0 l 1
 400 0 l 5
 400 500 l 5
 200 500 l 1
100 600 m 1
 500 600 l 5
 500 -100 l 5
 100 -100 l 1
 100 600 l 1
EndSplineSet
EndChar

StartChar: afii00208
Encoding: 8213 8213 63
Width: 939
VWidth: 0
Flags: HMW
LayerCount: 2
Back
SplineSet
517.119 254 m 0
 444.403 254 253.7 251.5 92 239 c 9
 47 284 l 17
 263.15 271.5 481.534 269 621.2 268.996 c 0
 693.916 268.996 884.619 271.496 1046.32 283.996 c 9
 1091.32 238.996 l 17
 875.169 251.496 656.785 253.996 517.119 254 c 0
1072.85 221.997 m 6
 90.9424 221.997 l 2
 75.9619 221.997 59.0244 230.922 55.6357 244.997 c 2
 48.8564 273 l 2
 45.1562 288.284 56.3467 300 74.001 300 c 2
 1086.4 300 l 6
 1107.27 300 1118.72 291.15 1115.29 274 c 6
 1110.3 248.997 l 6
 1106.98 232.611 1094.25 221.997 1072.85 221.997 c 6
EndSplineSet
Fore
SplineSet
143 329 m 9
 879 346 l 17
 883.33 284.57 867.324 226.099 835 170 c 9
 80 187 l 17
 93.2676 240.387 112.729 288.924 143 329 c 9
EndSplineSet
EndChar

StartChar: emdash
Encoding: 8212 8212 64
Width: 789
VWidth: 0
Flags: HMW
LayerCount: 2
Back
SplineSet
388.295 254 m 0
 337.614 254 204.7 251.5 92 239 c 13
 47 284 l 17
 197.65 271.5 349.857 269 447.2 268.996 c 0
 497.881 268.996 630.795 271.496 743.495 283.996 c 9
 788.495 238.996 l 21
 637.846 251.496 485.638 253.996 388.295 254 c 0
751.846 221.997 m 2
 90.9424 221.997 l 2
 75.9619 221.997 59.0244 230.922 55.6357 244.997 c 2
 48.8564 273 l 2
 45.1562 288.284 56.3467 300 74.001 300 c 2
 765.4 300 l 2
 786.265 300 797.715 291.15 794.29 274 c 2
 789.296 248.997 l 2
 785.98 232.611 773.246 221.997 751.846 221.997 c 2
EndSplineSet
Fore
SplineSet
143 329 m 9
 729 346 l 17
 733.33 284.57 717.324 226.099 685 170 c 9
 80 187 l 17
 93.2676 240.387 112.729 288.924 143 329 c 9
EndSplineSet
EndChar

StartChar: endash
Encoding: 8211 8211 65
Width: 639
VWidth: 0
Flags: HMW
LayerCount: 2
Back
SplineSet
20 300 m 1
 340 300 l 1
 340 201 l 1
 20 201 l 1
 20 300 l 1
EndSplineSet
Fore
SplineSet
143 329 m 9
 579 346 l 21
 583.33 284.57 567.324 226.099 535 170 c 13
 80 187 l 17
 93.2676 240.387 112.729 288.924 143 329 c 9
EndSplineSet
EndChar

StartChar: afii57665
Encoding: 1489 1489 66
Width: 684
VWidth: 0
Flags: MW
LayerCount: 2
Back
SplineSet
109 659 m 21
 94.3799 595.415 103.313 539.257 131 489 c 13
 427 514 l 18
 494.521 519.703 534.312 484.425 531 424 c 10
 514 114 l 25
 150 137 l 21
 97.8965 79.7598 67.1172 20.9023 50 -39 c 13
 706 -21 l 17
 730.859 26.1855 743.743 75.8428 730 131 c 9
 604 120 l 25
 688 478 l 18
 709.856 571.148 669.74 619.736 566 627 c 10
 109 659 l 21
EndSplineSet
Fore
SplineSet
89 639 m 13
 485.198 607 l 22
 588.854 598.628 629.055 551.148 607.198 458 c 14
 523.198 120 l 25
 649.198 131 l 17
 662.941 75.8428 650.058 26.1855 625.198 -21 c 9
 30 -39 l 17
 47.1172 20.9023 77.8965 79.7598 130 137 c 9
 433.198 114 l 25
 450.198 404 l 22
 453.51 464.425 413.578 501.162 346.198 494 c 14
 111 469 l 21
 83.3115 519.257 74.3799 575.415 89 639 c 13
EndSplineSet
EndChar
